<?xml version="1.0" encoding="UTF-8"?>
<svg id="_图层_1" data-name="图层 1" xmlns="http://www.w3.org/2000/svg" viewBox="0 0 3840 2160">
  <defs>
    <style>
      .cls-1 {
        fill: #fff;
      }
    </style>
  </defs>
  <g>
    <path class="cls-1" d="M391.09,1586.01v-920h153.77v920h-153.77ZM461.33,1197.01v-151h165.8c20.67,0,36.7-5.34,48.09-16.03s17.09-25.48,17.09-44.36v-101.92c0-20.97-5.7-37.31-17.09-49.06s-27.42-17.62-48.09-17.62h-165.8v-151h156.31c49.78,0,92.28,8.12,127.5,24.34s62.12,39.92,80.69,71.11,27.84,68.91,27.84,113.16v107.47c0,45.52-9.28,84.28-27.84,116.31-18.56,32.03-45.47,56.47-80.69,73.33s-77.72,25.28-127.5,25.28h-156.31ZM711.29,1586.01l-122.14-417.55,143.66-29.19,146.81,446.73h-168.33Z"/>
    <path class="cls-1" d="M1140.33,1595.01c-62.02,0-110.31-15.67-144.91-47.02s-51.89-75.22-51.89-131.61v-321.91c0-55.97,17.3-99.2,51.89-129.7s82.89-45.77,144.91-45.77,110.84,15.27,145.23,45.77c34.38,30.5,51.58,73.73,51.58,129.7v323.8c0,55.97-17.2,99.42-51.58,130.34-34.39,30.94-82.8,46.39-145.23,46.39ZM1140.33,1454.01c13.5,0,23.83-4.2,31-12.61s10.77-20.61,10.77-36.61v-298.45c0-14.72-3.59-26.3-10.77-34.7s-17.5-12.62-31-12.62c-12.66,0-22.78,4.22-30.38,12.62s-11.39,19.98-11.39,34.7v298.45c0,16,3.8,28.2,11.39,36.61s17.72,12.61,30.38,12.61Z"/>
    <path class="cls-1" d="M1631.4,1595.01c-62.02,0-110.31-15.67-144.91-47.02s-51.89-75.22-51.89-131.61v-321.91c0-55.97,17.3-99.2,51.89-129.7s82.89-45.77,144.91-45.77,110.84,15.27,145.23,45.77c34.38,30.5,51.58,73.73,51.58,129.7v323.8c0,55.97-17.2,99.42-51.58,130.34-34.39,30.94-82.8,46.39-145.23,46.39ZM1631.4,1454.01c13.5,0,23.83-4.2,31-12.61s10.77-20.61,10.77-36.61v-298.45c0-14.72-3.59-26.3-10.77-34.7s-17.5-12.62-31-12.62c-12.66,0-22.78,4.22-30.38,12.62s-11.39,19.98-11.39,34.7v298.45c0,16,3.8,28.2,11.39,36.61s17.72,12.61,30.38,12.61Z"/>
    <path class="cls-1" d="M1939.58,1586.01v-920h155.03v920h-155.03ZM2047.79,1514.49l-6.33-217.11,197.44-368.38h158.84l-349.95,585.48ZM2257.88,1586.01l-129.72-330.41,97.45-104.42,198.06,434.83h-165.8Z"/>
    <path class="cls-1" d="M2675.93,1205.25h-199.75v-115.34h346.96v496.1h-147.21v-380.76ZM2645.1,922.46c0-53.87,40.99-91.42,97.75-91.42s97.75,37.54,97.75,91.42-40.99,89.97-97.75,89.97-97.75-35.82-97.75-89.97Z"/>
    <path class="cls-1" d="M3254.02,1595.01c-65.41,0-116.34-17.56-152.83-52.7-36.5-35.12-54.73-84.67-54.73-148.64v-261.31c0-68.16,17.81-120.77,53.47-157.8,35.64-37.03,85.31-55.55,149.03-55.55s116,18.11,151.86,54.31,53.8,87.55,53.8,154.05v185.64h-281.59v-115h129.72v-77.64c0-19.19-4.75-34.22-14.23-45.08-9.5-10.84-22.67-16.28-39.55-16.28-15.62,0-27.86,5.78-36.72,17.34-8.86,11.56-13.28,27.86-13.28,48.86v273.67c0,18.09,4.84,31.97,14.55,41.62,9.7,9.67,23.2,14.5,40.52,14.5s29.09-3.98,37.95-11.98,13.3-19.36,13.3-34.09v-22.73l151.25,1.25v18.3c0,60.16-17.72,106.73-53.16,139.75s-85.22,49.52-149.34,49.52Z"/>
  </g>
  <g>
    <path class="cls-1" d="M389.35,480.75c0-17.09,3.55-30.28,10.65-39.57,7.1-9.29,16.79-13.94,29.07-13.94s22.5,4.82,29.36,14.46c6.85,9.64,10.28,22.65,10.28,39.05s-3.54,30.14-10.61,39.46-16.75,13.97-29.03,13.97-22.66-4.84-29.48-14.53-10.24-22.65-10.24-38.9ZM406.13,480.75c0,14.81,1.97,25.4,5.92,31.78,3.95,6.38,9.62,9.58,17.02,9.58s13.08-3.2,17.02-9.61,5.92-16.99,5.92-31.75-2-25.66-6-31.97c-4-6.31-9.65-9.46-16.94-9.46-8.22,0-14.1,3.59-17.64,10.77-3.54,7.18-5.3,17.4-5.3,30.67Z"/>
    <path class="cls-1" d="M539.71,519.57v-77.72h-13.73v-12.97h39.14l30.1,71.06,30.43-71.06h39.55v12.97h-13.82v77.72h13.82v12.97h-43.09v-12.97h13.65v-77.72l-39.47,91.74h-3.37l-39.06-91.74v77.72h12.58v12.97h-40.46v-12.97h13.73Z"/>
    <path class="cls-1" d="M715.4,544.02h86.18v7.6h-86.18v-7.6Z"/>
    <path class="cls-1" d="M865.51,519.57v-77.72h-14.39v-12.97h40.87c12.01,0,21,.77,26.97,2.31,5.97,1.54,10.98,5.03,15.01,10.47,4.03,5.44,6.04,11.86,6.04,19.26,0,5.91-1.33,11.22-3.99,15.91-2.66,4.7-5.95,8.16-9.87,10.4-3.92,2.24-8.33,3.74-13.24,4.51-4.91.77-12.32,1.16-22.24,1.16h-7.89v26.68h14.8v12.97h-46.46v-12.97h14.39ZM882.78,480.38h9.87c11.24,0,19.02-1.45,23.35-4.36,4.33-2.91,6.5-8.04,6.5-15.39,0-4.67-1.15-8.54-3.45-11.62-2.3-3.08-5.15-5.04-8.55-5.89-3.4-.84-9.07-1.27-17.02-1.27h-10.69v38.53Z"/>
    <path class="cls-1" d="M1089.09,480.23c0-15.05,5.43-27.65,16.28-37.78,10.85-10.13,25-15.2,42.43-15.2s31.93,5.07,43.01,15.2c11.07,10.13,16.61,22.83,16.61,38.08s-5.63,28.38-16.9,38.49c-11.27,10.11-25.59,15.17-42.97,15.17-11.07,0-21.26-2.4-30.55-7.19-9.29-4.79-16.27-11.48-20.93-20.05-4.66-8.57-6.99-17.48-6.99-26.72ZM1107.92,480.3c0,11.38,3.67,20.92,11.02,28.62,7.35,7.7,16.99,11.55,28.95,11.55s21.57-3.94,29.19-11.81c7.62-7.87,11.43-17.28,11.43-28.21s-3.88-20.36-11.64-27.98c-7.76-7.63-17.5-11.44-29.23-11.44s-21.22,3.75-28.62,11.25c-7.4,7.5-11.1,16.84-11.1,28.02Z"/>
    <path class="cls-1" d="M1280.07,519.57v-77.72h-16.36v-12.97h39.05l50.18,80.58v-67.61h-16.2v-12.97h46.96v12.97h-16.86v91.74h-17.72l-54.89-88.48v74.46h16.36v12.97h-46.87v-12.97h16.36Z"/>
    <path class="cls-1" d="M1450.57,519.57v-77.72h-14.8v-12.97h95.06v31.22h-14.14v-18.26h-48.85v30.85h42.51v12.97h-42.51v33.91h48.85v-18.85h14.14v31.82h-95.06v-12.97h14.8Z"/>
    <path class="cls-1" d="M1588.76,489.69h49.34v14.16h-49.34v-14.16Z"/>
    <path class="cls-1" d="M1708.2,519.57v-77.72h-13.73v-12.97h39.14l30.1,71.06,30.43-71.06h39.55v12.97h-13.82v77.72h13.82v12.97h-43.09v-12.97h13.65v-77.72l-39.47,91.74h-3.37l-39.06-91.74v77.72h12.58v12.97h-40.46v-12.97h13.73Z"/>
    <path class="cls-1" d="M1964.68,496.1h-41.21l-8.75,23.47h13.9v12.97h-45.06v-12.97h13.84l31.23-78.99h-13.82v-11.7h58.47v11.7h-14.3l32.01,78.99h12.8v12.97h-44.82v-12.97h14.23l-8.51-23.47ZM1960.37,483.95l-15.22-43.37h-1.56l-15.85,43.37h32.63Z"/>
    <path class="cls-1" d="M2066.8,519.57v-77.72h-16.36v-12.97h39.05l50.18,80.58v-67.61h-16.2v-12.97h46.96v12.97h-16.86v91.74h-17.72l-54.89-88.48v74.46h16.36v12.97h-46.87v-12.97h16.36Z"/>
    <path class="cls-1" d="M2324.35,519.57v-77.72h-14.8v-12.97h46.79v12.97h-14.06v77.72h35.03v-35.25h16.12v48.21h-83.88v-12.97h14.8Z"/>
    <path class="cls-1" d="M2459.74,519.57v-77.72h-12.33v-12.97h41.94v12.97h-12.33v77.72h12.33v12.97h-41.94v-12.97h12.33Z"/>
    <path class="cls-1" d="M2594.18,533.58l-38.43-91.74h-14.15v-12.97h45.15v12.97h-13.22l29.13,69.6,28.35-69.6h-13.34v-12.97h43.91v12.97h-13.89l-37.64,91.74h-15.87Z"/>
    <path class="cls-1" d="M2727.72,519.57v-77.72h-14.8v-12.97h95.06v31.22h-14.14v-18.26h-48.85v30.85h42.51v12.97h-42.51v33.91h48.85v-18.85h14.14v31.82h-95.06v-12.97h14.8Z"/>
    <path class="cls-1" d="M3030.91,495.5l-1.07,37.04h-73.1c0-7.16,1.41-13.99,4.23-20.51,2.82-6.51,6.79-12.21,11.91-17.08,5.12-4.87,12.94-10.78,23.47-17.74,6.64-4.42,11.14-8.1,13.5-11.06,2.36-2.95,3.54-6.39,3.54-10.31,0-4.81-1.67-8.75-5.02-11.8-3.34-3.05-7.95-4.58-13.82-4.58-6.85,0-11.87,1.74-15.05,5.22-3.18,3.48-4.77,9.19-4.77,17.14,0,1.99.05,3.88.17,5.66h-15.21c-.06-1.79-.08-3.25-.08-4.4,0-11.23,2.93-20.01,8.8-26.34,5.87-6.33,14.47-9.5,25.82-9.5s20.24,2.71,26.36,8.12c6.11,5.42,9.17,12.07,9.17,19.97,0,6.61-2,12.25-6,16.92-4,4.67-11.65,10.61-22.94,17.81-10.97,7.05-18.16,12.79-21.59,17.21-3.43,4.42-5.42,8.35-5.96,11.77h43.09l.66-23.55h13.9Z"/>
    <path class="cls-1" d="M3094.34,480.75c0-17.09,3.55-30.28,10.65-39.57,7.1-9.29,16.79-13.94,29.07-13.94s22.5,4.82,29.36,14.46c6.85,9.64,10.28,22.65,10.28,39.05s-3.54,30.14-10.61,39.46c-7.07,9.32-16.75,13.97-29.03,13.97s-22.66-4.84-29.48-14.53-10.24-22.65-10.24-38.9ZM3111.12,480.75c0,14.81,1.97,25.4,5.92,31.78,3.95,6.38,9.62,9.58,17.02,9.58s13.07-3.2,17.02-9.61,5.92-16.99,5.92-31.75-2-25.66-6-31.97c-4-6.31-9.65-9.46-16.94-9.46-8.22,0-14.1,3.59-17.64,10.77-3.54,7.18-5.3,17.4-5.3,30.67Z"/>
    <path class="cls-1" d="M3307.77,495.5l-1.07,37.04h-73.1c0-7.16,1.41-13.99,4.23-20.51,2.82-6.51,6.79-12.21,11.91-17.08,5.12-4.87,12.94-10.78,23.47-17.74,6.64-4.42,11.14-8.1,13.5-11.06,2.36-2.95,3.54-6.39,3.54-10.31,0-4.81-1.67-8.75-5.02-11.8-3.34-3.05-7.95-4.58-13.82-4.58-6.85,0-11.87,1.74-15.05,5.22-3.18,3.48-4.77,9.19-4.77,17.14,0,1.99.05,3.88.17,5.66h-15.21c-.06-1.79-.08-3.25-.08-4.4,0-11.23,2.93-20.01,8.8-26.34,5.87-6.33,14.47-9.5,25.82-9.5s20.24,2.71,26.36,8.12c6.11,5.42,9.17,12.07,9.17,19.97,0,6.61-2,12.25-6,16.92-4,4.67-11.65,10.61-22.94,17.81-10.97,7.05-18.16,12.79-21.59,17.21-3.43,4.42-5.42,8.35-5.96,11.77h43.09l.66-23.55h13.9Z"/>
    <path class="cls-1" d="M3446.37,459.51h-13.9c-.82-5.91-3.11-10.73-6.87-14.46-3.75-3.73-8.32-5.59-13.69-5.59-7.29,0-12.97,3.44-17.02,10.32-4.06,6.88-6.17,16.31-6.33,28.28,7.78-7.65,16.75-11.48,26.89-11.48,8.72,0,16.19,2.92,22.41,8.76,6.22,5.84,9.33,13.65,9.33,23.44s-3.07,18.07-9.21,25c-6.14,6.93-14.53,10.4-25.16,10.4-11.9,0-21.42-4.43-28.58-13.3s-10.73-22.05-10.73-39.53,3.45-29.82,10.36-39.53,16.86-14.57,29.85-14.57c10.2,0,18.1,3.04,23.72,9.13,5.62,6.09,8.59,13.8,8.92,23.14ZM3389.38,493.71c2.47,18.78,10.03,28.17,22.7,28.17,6.47,0,11.51-2.16,15.13-6.48,3.62-4.32,5.43-9.49,5.43-15.5s-1.71-10.68-5.14-14.31c-3.43-3.63-8.05-5.44-13.86-5.44-8.17,0-16.25,4.52-24.26,13.56Z"/>
  </g>
  <g>
    <path class="cls-1" d="M903.06,1865.52v-128.33h41.47v7.39h-27.54v113.41h27.54v7.53h-41.47Z"/>
    <path class="cls-1" d="M1180.6,1841.64v-5.09l11.53-3.32c.85-.23,1.53-.6,2.06-1.12.52-.52.79-1.28.79-2.27v-73.8c0-.95-.28-1.67-.82-2.17-.55-.5-1.22-.86-2.02-1.08l-11.53-3.46v-4.95h43.86c8.18,0,14.86.72,20.02,2.17,5.17,1.45,9.16,3.37,11.98,5.77,2.82,2.4,4.76,5.04,5.84,7.94,1.07,2.89,1.61,5.81,1.61,8.75,0,5.29-1.3,9.83-3.89,13.6-2.59,3.78-5.81,6.77-9.66,8.99-3.84,2.22-7.66,3.71-11.45,4.48l-12.13,4.48-17.21-3.19.67-7.26c.45.14,1.52.28,3.22.44,1.7.16,3.5.28,5.43.37,1.92.09,3.43.14,4.53.14,5.39,0,9.83-.89,13.32-2.68,3.49-1.79,6.1-4.15,7.82-7.09,1.72-2.94,2.58-6.08,2.58-9.43,0-6.78-2.15-11.7-6.44-14.75-4.29-3.05-10.58-4.58-18.86-4.58h-11.15v77.33c0,1,.27,1.75.82,2.27.55.52,1.22.89,2.02,1.12l11.83,3.32v5.09h-44.76ZM1285.01,1841.64h-18.11c-3.34,0-5.84-.26-7.49-.78-1.65-.52-3.04-1.41-4.19-2.68-1.15-1.27-2.62-3.03-4.42-5.29l-26.87-33.58,15.19-4.27,28.22,33.92c.55.72,1.43,1.59,2.66,2.61,1.22,1.02,2.38,1.66,3.48,1.93l11.53,3.05v5.09Z"/>
    <path class="cls-1" d="M1413.01,1843.2c-7.24,0-13.77-1.44-19.61-4.31s-10.45-7.11-13.85-12.72c-3.39-5.61-5.09-12.48-5.09-20.62,0-7.28,1.63-13.85,4.9-19.71,3.27-5.86,7.81-10.5,13.62-13.94,5.81-3.44,12.56-5.16,20.25-5.16,7.08,0,13.14,1.33,18.15,4,5.01,2.67,8.86,6.2,11.53,10.58,2.67,4.39,4,9.16,4,14.31,0,.59-.03,1.35-.08,2.27-.05.93-.11,1.84-.19,2.75-.08.91-.21,1.67-.41,2.31h-57.33l.45-7.05h41.62c0-4.43-.61-8.28-1.83-11.53-1.22-3.26-3.19-5.78-5.91-7.56-2.72-1.79-6.35-2.68-10.89-2.68s-8.03.85-10.93,2.54c-2.89,1.7-5.18,3.95-6.85,6.75-1.67,2.8-2.86,5.87-3.56,9.19-.7,3.32-1.05,6.59-1.05,9.8,0,5.74.91,10.92,2.73,15.53,1.82,4.61,4.8,8.26,8.94,10.96,4.14,2.69,9.71,4.04,16.69,4.04,3.84,0,7.43-.51,10.78-1.53,3.34-1.02,6.34-2.23,8.98-3.63,2.64-1.4,4.81-2.69,6.51-3.87h2.1v7.8c-3.74,2.76-8.58,5.36-14.52,7.8-5.94,2.44-12.33,3.66-19.16,3.66Z"/>
    <path class="cls-1" d="M1701.03,1788.46c-3.09,0-5.75-.96-7.97-2.88-2.22-1.92-3.33-4.33-3.33-7.22s1.11-5.25,3.33-7.19c2.22-1.94,4.88-2.92,7.97-2.92s5.89.98,8.08,2.95c2.2,1.97,3.29,4.35,3.29,7.16s-1.1,5.3-3.29,7.22c-2.2,1.92-4.89,2.88-8.08,2.88ZM1701.03,1842.39c-3.09,0-5.75-.97-7.97-2.92-2.22-1.94-3.33-4.34-3.33-7.19s1.11-5.2,3.33-7.19c2.22-1.99,4.88-2.98,7.97-2.98s5.89,1,8.08,2.98c2.2,1.99,3.29,4.39,3.29,7.19s-1.1,5.25-3.29,7.19c-2.2,1.95-4.89,2.92-8.08,2.92Z"/>
    <path class="cls-1" d="M1988.83,1842.59l-29.34-85.94c-.35-1.13-.85-2.06-1.5-2.78-.65-.72-1.42-1.24-2.32-1.56l-7.41-2.98v-4.95h38.92v4.95l-12.8,4,20.58,59.49,2.47,10.04h1.35l21.26-59.22,7.93-17.7h10.78l23.65,66.68,2.84,10.38h1.2l24.7-69.25-13.02-4.41v-4.95h33.91v4.95l-7.34,3.19c-.8.32-1.55.8-2.25,1.46-.7.66-1.2,1.37-1.5,2.14l-25.45,68.98-7.71,17.5h-11l-23.88-67.63-2.54-9.16h-1.12l-21.41,59.28-7.86,17.5h-11.15Z"/>
    <path class="cls-1" d="M2203.49,1841.64v-4.95l11.3-2.71c.9-.23,1.63-.6,2.21-1.12.57-.52.86-1.25.86-2.2v-47.28c0-.99-.3-1.75-.9-2.27-.6-.52-1.4-.94-2.4-1.25l-10.93-3.32v-4.88l29.19-3.66v62.68c0,.95.29,1.7.86,2.24.57.54,1.26.91,2.06,1.08l11.23,2.71v4.95h-43.49ZM2224,1754.34c-1.9,0-3.67-.35-5.31-1.05-1.65-.7-2.97-1.72-3.97-3.05-1-1.33-1.5-2.91-1.5-4.71,0-2.89,1.07-5.12,3.22-6.68,2.15-1.56,4.67-2.34,7.56-2.34,3.34,0,6.05.72,8.12,2.17,2.07,1.45,3.11,3.55,3.11,6.31,0,1.94-.49,3.62-1.46,5.02-.97,1.4-2.31,2.48-4,3.22-1.7.75-3.62,1.12-5.76,1.12Z"/>
    <path class="cls-1" d="M2344.13,1841.64v-5.09l11.53-3.8c.85-.27,1.53-.66,2.06-1.15.52-.5.79-1.22.79-2.17v-73.32c0-.95-.28-1.67-.82-2.17-.55-.5-1.22-.86-2.02-1.08l-11.98-3.53v-4.95h30.76l51.95,67.08,5.76,8.75h1.2v-63.83c0-.95-.3-1.64-.9-2.07-.6-.43-1.3-.78-2.1-1.05l-11.38-3.93v-4.95h38.7v4.95l-11.45,3.93c-.65.23-1.3.58-1.95,1.05-.65.48-.97,1.17-.97,2.07v70.2l-2.25,15.74h-8.91l-56.51-72.71-5.76-8.89h-1.2v68.71c0,1,.3,1.74.9,2.24.6.5,1.25.86,1.95,1.08l11.3,3.8v5.09h-38.7Z"/>
    <path class="cls-1" d="M2556.93,1841.64v-5.09l11.53-3.32c.8-.23,1.47-.6,2.02-1.12.55-.52.82-1.28.82-2.27v-73.8c0-.95-.28-1.67-.82-2.17-.55-.5-1.22-.86-2.02-1.08l-11.53-3.46v-4.95h49.1c4.29,0,8.87.45,13.73,1.36,4.87.91,9.67,2.44,14.41,4.61,4.74,2.17,9.04,5.13,12.91,8.89,3.87,3.75,6.96,8.43,9.28,14.04,2.32,5.61,3.48,12.32,3.48,20.15,0,11.08-2.43,20.18-7.3,27.3s-11.39,12.39-19.57,15.8c-8.18,3.42-17.27,5.12-27.25,5.12h-48.8ZM2587.02,1752.51v80.99h19.09c12.52,0,21.71-3.32,27.54-9.97,5.84-6.65,8.76-16.01,8.76-28.08,0-8.86-1.68-16.49-5.05-22.89-3.37-6.4-8.12-11.34-14.26-14.82-6.14-3.48-13.35-5.22-21.63-5.22h-14.45Z"/>
    <path class="cls-1" d="M2895.48,1865.52v-7.53h27.77v-113.41h-27.77v-7.39h41.62v128.33h-41.62Z"/>
  </g>
</svg>