<?xml version="1.0" encoding="UTF-8"?>
<svg id="_图层_1" data-name="图层 1" xmlns="http://www.w3.org/2000/svg" viewBox="0 0 3840 2160">
  <defs>
    <style>
      .cls-1 {
        fill: #fff;
      }

      .cls-2 {
        fill: none;
        stroke: #fff;
        stroke-miterlimit: 11.34;
        stroke-width: 9.98px;
      }

      .cls-3 {
        fill: #f03;
      }
    </style>
  </defs>
  <g>
    <g>
      <path d="M455.56,791.24c116.3,18.31,205.67,75.38,205.67,179.83,0,78.61-39.84,132.45-95.84,164.75s-134.6,45.23-216.44,45.23H87.29v-17.23c76.46-14,86.15-22.61,86.15-115.22v-439.35c0-93.68-10.77-95.84-86.15-110.91v-17.23h301.51c89.38,0,135.68,12.92,174.45,38.77,37.69,25.84,59.23,64.61,59.23,114.14,0,97.99-90.45,141.06-166.91,157.22ZM352.19,786.93c96.91,0,132.45-40.92,132.45-130.3,0-111.99-57.07-149.68-119.53-149.68-18.31,0-38.77,2.15-47.38,9.69-9.69,7.54-10.77,23.69-10.77,52.76v217.52h45.23ZM306.96,1055.06c0,74.3,29.07,99.07,89.38,99.07,66.76,0,116.3-59.23,116.3-174.45,0-107.68-42-166.91-162.6-166.91h-43.07v242.29Z"/>
      <path d="M721.53,1181.05v-17.23c57.07-9.69,59.23-15.08,59.23-97.99v-217.52c0-62.46-3.23-66.76-47.38-81.84v-15.08c63.53-7.54,121.68-20.46,172.29-38.77-1.08,22.61-2.15,83.99-2.15,125.99v227.21c0,79.69,5.38,86.15,62.46,97.99v17.23h-244.44ZM833.52,620.02c-35.54,0-64.61-29.07-64.61-67.84s29.07-67.84,65.69-67.84c39.84,0,67.84,28,67.84,67.84s-28,67.84-68.92,67.84Z"/>
      <path d="M1257.78,1181.05h-249.82v-17.23c54.92-9.69,58.15-14,58.15-92.61v-229.36c0-56-8.61-62.46-48.46-75.38v-14c56-6.46,119.53-19.38,174.45-42-1.08,17.23-3.23,74.3-3.23,113.07,26.92-49.53,71.07-110.91,123.84-110.91,35.54,0,61.38,21.54,61.38,54.92,0,29.07-28,72.15-53.84,80.76-14,5.38-19.38,3.23-26.92-4.31-19.38-18.31-30.15-32.3-49.53-32.3-16.15,0-36.61,8.61-54.92,46.3v213.21c0,78.61,8.61,80.76,68.92,92.61v17.23Z"/>
      <path d="M1638.95,1182.13c-15.08,7.54-33.38,11.84-40.92,11.84-73.22,0-117.37-36.61-117.37-127.07v-307.97h-63.53l-2.15-6.46,18.31-26.92h47.38v-88.3c36.61-19.38,81.84-52.76,114.14-79.69l11.85,1.08c-1.08,32.31-4.31,106.61-3.23,166.91h95.84c4.31,6.46,1.08,25.84-4.31,33.38h-91.53v285.36c0,79.68,30.15,95.84,56,95.84,10.77,0,29.07-3.23,40.92-8.61l5.38,16.15-66.76,34.46Z"/>
      <path d="M2014.76,1181.05v-17.23c54.92-11.84,56-19.38,56-81.84v-202.44c0-75.38-33.38-104.45-77.53-104.45-26.92,0-53.84,9.69-75.38,28v278.9c0,64.61,2.15,71.07,58.15,81.84v17.23h-242.29v-17.23c57.07-10.77,62.46-16.15,62.46-89.38v-507.19c0-81.84-3.23-87.22-59.23-101.22v-15.08c59.23-4.31,138.91-20.46,185.21-36.61-1.08,8.61-4.31,66.76-4.31,141.06v226.13c36.61-36.61,83.99-68.92,141.06-68.92,82.92,0,134.6,49.53,134.6,166.91v194.91c0,72.15,2.15,78.61,51.69,89.38v17.23h-230.44Z"/>
      <path d="M2823.44,1156.29c-20.46,3.23-110.91,17.23-188.44,44.15,1.08-10.77,2.15-45.23,2.15-64.61-20.46,12.92-48.46,30.15-72.15,40.92-29.07,12.92-42,17.23-57.07,17.23-86.15,0-194.91-74.3-194.91-229.36,0-137.83,117.38-251.98,276.75-251.98,11.84,0,34.46,1.08,47.38,3.23v-162.6c0-66.76-5.38-73.22-73.22-89.38v-15.08c71.07-5.38,159.37-21.54,199.21-35.54-2.15,30.15-3.23,82.92-3.23,133.53v502.88c0,67.84,7.54,75.38,42,83.99l21.54,5.38v17.23ZM2637.15,796.62c-18.3-38.77-60.3-56-91.53-56-37.69,0-93.68,35.54-92.61,184.14,1.08,139.99,67.84,206.75,128.14,206.75,16.15,0,36.61-5.38,55.99-18.31v-316.59Z"/>
      <path d="M3196.01,1193.97c-26.92,0-46.3-7.54-60.3-21.54-11.84-11.85-20.46-29.08-24.77-47.38-34.46,26.92-89.38,68.92-108.76,68.92-76.46,0-128.14-64.61-128.14-128.14,0-50.61,23.69-76.46,72.15-93.68,58.15-21.54,136.76-40.92,162.6-60.3v-63.53c0-66.76-40.92-97.99-72.15-97.99-19.38,0-33.38,8.61-44.15,23.69-7.54,10.77-15.08,30.15-24.77,71.07-5.38,21.54-12.92,29.07-28,29.07-34.46,0-55.99-28-55.99-49.53,0-11.85,9.69-24.77,31.23-38.77,53.84-34.46,121.68-65.69,162.6-73.22,46.3,0,72.15,14,95.84,30.15,44.15,34.46,54.92,77.53,54.92,139.99v185.21c0,44.15,16.15,59.23,35.54,59.23,7.54,0,17.23-1.08,24.77-4.31l5.38,17.23-97.99,53.84ZM3108.79,934.46c-16.15,8.61-33.38,14-55.99,25.84-39.84,21.54-58.15,40.92-58.15,78.61,0,59.23,32.31,83.99,63.53,83.99,15.08,0,31.23-2.15,49.54-17.23,0-62.46,1.08-108.76,1.08-171.22Z"/>
      <path d="M3785.03,741.71c-46.3,11.84-53.84,21.54-81.84,86.15-28,63.53-63.53,150.76-123.83,311.2-63.53,170.14-83.99,240.13-100.14,298.28-7.54,24.77-18.31,30.15-32.31,30.15-32.3,0-72.15-24.77-72.15-57.07,0-10.77,4.31-20.46,26.92-35.54,48.46-32.3,69.99-51.69,93.69-97.99,9.69-19.38,18.3-36.61,21.54-48.46,2.15-7.54-7.54-34.46-16.15-58.15-49.53-137.83-119.53-298.28-145.37-361.81-18.31-42-24.77-57.07-72.15-66.76v-16.15h247.67v16.15c-59.23,11.84-61.38,20.46-46.3,58.15l99.07,249.82c30.15-82.92,64.61-165.83,86.15-241.21,12.92-40.92,9.69-52.76-63.53-66.76v-16.15h178.75v16.15Z"/>
    </g>
    <g>
      <path d="M134.03,1391.21c0,19.05-7.21,42.18-25.72,42.18s-26.26-23.13-26.26-42.18,7.48-42.05,26.26-42.05,25.72,23.95,25.72,42.05ZM108.31,1352.29c-14.56,0-18.37,20.14-18.37,39.05s3.81,39.05,18.51,39.05,17.96-20.55,17.96-39.05-3.95-39.05-17.96-39.05h-.14Z"/>
      <path d="M155.39,1346.71h17.28l35.92,72.12,36.06-72.12h19.6v1.91c-12.66,1.22-13.88,2.58-13.34,16.19l.95,48.31c.41,14.02.95,15.78,13.74,16.87v1.91h-33.34v-1.91c11.97-.95,12.38-2.72,12.25-16.87l-.54-57.15h-.54l-36.88,74.43h-1.22l-33.48-69.81h-.27l-1.77,36.74c-.41,6.4-.54,11.02-.54,14.7,0,13.06,1.36,16.74,14.02,17.96v1.91h-32.79v-1.91c8.44-.68,11.29-2.99,12.38-8.44.95-4.08,2.04-12.25,2.99-26.26l1.91-24.9c.14-3.67.27-6.67.27-9.12,0-9.66-2.31-11.43-12.65-12.66v-1.91Z"/>
      <path d="M345.9,1442.1v6.8h-68.04v-6.8h68.04Z"/>
      <path d="M359.37,1429.99c11.7-.54,12.79-2.86,12.79-13.61v-54.16c0-10.89,0-12.93-11.97-13.47v-2.04h32.25c8.57,0,29.67,1.09,29.67,23.68,0,19.87-18.92,28.03-31.71,26.67l-10.89-2.99v22.59c0,10.61.95,12.52,14.83,13.33v1.91h-34.97v-1.91ZM379.5,1391.07c1.5.68,5.17,2.04,11.57,2.04,12.11,0,22.04-6.26,22.04-22.04,0-14.83-8.57-21.64-25.31-21.64-3.67,0-5.71,0-6.94.27-.95.14-1.36.54-1.36,3.4v37.97Z"/>
      <path d="M478.16,1429.99c11.43-.54,12.52-2.86,12.52-12.79v-55.79c0-9.93-1.09-12.25-12.52-12.79v-1.91h57.83c0,7.35.68,14.42,1.23,20.96l-2.45.27c-2.59-14.42-6.12-17.96-21.77-17.96h-11.43c-3.54,0-3.81.27-3.81,3.81v33.07h15.65c12.79,0,13.88-1.22,16.19-10.34h2.31v26.4h-2.31c-2.31-10.61-3.4-12.25-16.19-12.25h-15.65v26.54c0,9.93,1.22,12.11,14.97,12.79v1.91h-34.56v-1.91Z"/>
      <path d="M554.63,1429.99c12.79-.68,13.74-2.99,13.74-13.47v-53.34c0-11.7-1.09-14.02-12.38-14.56v-1.91h59.19c0,4.76.68,12.79,1.22,20.82l-2.31.41c-2.86-13.88-5.44-17.96-21.91-17.96h-12.79c-3.67,0-3.81.27-3.81,3.81v31.84h15.92c10.75,0,13.34-1.36,15.38-10.48h2.31v25.31h-2.31c-2.18-10.48-5.03-11.02-15.38-11.02h-15.92v26.54c0,12.79,5.58,12.79,16.87,12.79,8.3,0,16.47-.14,20.82-5.17,2.18-2.59,5.58-7.35,7.62-13.47h2.31c-1.22,5.04-3.81,17.15-4.9,21.77h-63.68v-1.91Z"/>
      <path d="M694.92,1429.99c7.76-1.09,10.61-1.91,10.61-5.17,0-3.54-4.08-14.15-9.12-26.67h-31.43c-1.36,2.58-8.16,20.96-8.16,25.17,0,4.63,3.67,5.44,11.29,6.67v1.91h-30.89v-1.91c9.53-1.91,11.29-3.13,16.33-15.38l29.53-69.26,1.63-.68,9.12,25.17c6.26,17.01,12.38,34.02,17.55,47.08,4.08,10.07,5.17,11.57,14.7,13.06v1.91h-31.16v-1.91ZM681.72,1357.33c-5.44,12.11-10.75,25.04-15.1,36.47h28.58l-13.2-36.47h-.27Z"/>
      <path d="M759.55,1429.99c13.61-.68,14.56-2.99,14.56-13.33v-66.68h-8.44c-17.83,0-19.59,2.99-23.68,17.28h-2.18c.82-8.03,1.22-16.19,1.5-23.81h2.18c.95,1.63,1.91,2.45,2.99,2.86,1.09.41,2.45.41,4.35.41h54.84c3.54,0,4.49-.68,6.4-3.27l2.31.14c-.27,6.4.54,14.97,1.22,23.13l-2.31.54c-3.27-15.38-8.44-17.28-20-17.28h-12.11v66.68c0,10.34.95,12.65,15.1,13.33v1.91h-36.74v-1.91Z"/>
      <path d="M837.39,1427.27c0-3.4,2.59-6.26,5.99-6.26s6.12,2.86,6.12,6.26c0,3.67-2.59,6.12-6.12,6.12-3.81-.14-5.99-2.72-5.99-6.12Z"/>
      <path d="M929.24,1384.81h57.42v-22.59c0-10.61-1.09-12.66-12.79-13.61v-1.91h32.93v1.91c-11.98.95-13.06,2.99-13.06,13.61v54.16c0,10.75,1.09,12.79,12.66,13.61v1.91h-33.61v-1.91c12.79-.82,13.88-2.86,13.88-13.61v-27.35h-57.42v27.35c0,10.75,1.22,12.79,13.2,13.61v1.91h-32.79v-1.91c11.43-.82,12.52-2.86,12.52-13.61v-54.16c0-10.61-1.09-12.66-13.06-13.61v-1.91h32.66v1.91c-11.29.95-12.52,2.99-12.52,13.61v22.59Z"/>
      <path d="M1079.87,1429.99c7.76-1.09,10.61-1.91,10.61-5.17,0-3.54-4.08-14.15-9.12-26.67h-31.43c-1.36,2.58-8.16,20.96-8.16,25.17,0,4.63,3.67,5.44,11.29,6.67v1.91h-30.89v-1.91c9.53-1.91,11.29-3.13,16.33-15.38l29.53-69.26,1.63-.68,9.12,25.17c6.26,17.01,12.38,34.02,17.55,47.08,4.08,10.07,5.17,11.57,14.7,13.06v1.91h-31.16v-1.91ZM1066.67,1357.33c-5.44,12.11-10.75,25.04-15.1,36.47h28.58l-13.2-36.47h-.27Z"/>
      <path d="M1144.51,1429.99c13.61-.68,14.56-2.99,14.56-13.33v-66.68h-8.44c-17.83,0-19.59,2.99-23.68,17.28h-2.18c.82-8.03,1.22-16.19,1.5-23.81h2.18c.95,1.63,1.91,2.45,2.99,2.86,1.09.41,2.45.41,4.35.41h54.84c3.54,0,4.49-.68,6.4-3.27l2.31.14c-.27,6.4.54,14.97,1.22,23.13l-2.31.54c-3.27-15.38-8.44-17.28-20-17.28h-12.11v66.68c0,10.34.95,12.65,15.1,13.33v1.91h-36.74v-1.91Z"/>
      <path d="M1263.44,1366.44c-2.31-7.89-5.58-18.64-18.78-18.64-9.8,0-14.7,6.4-14.7,15.24,0,11.43,8.3,15.92,17.15,20.41,5.99,2.99,22.73,8.84,22.73,25.85,0,14.15-10.89,24.36-28.03,24.63-5.58-.27-10.34-1.09-13.74-2.18-3.27-1.09-5.03-2.04-5.85-2.59-1.09-3.54-2.45-13.34-3.27-21.5h2.18c2.18,7.35,8.03,22.72,23.95,22.72,10.48,0,16.87-5.71,16.87-17.69,0-13.74-11.16-18.37-18.37-22.45-1.23-.68-21.23-7.08-21.23-23.68,0-11.29,9.25-21.91,25.31-21.91,4.49,0,8.44.41,15.92,2.86.54,4.63,1.22,9.66,2.18,18.92h-2.31Z"/>
      <path d="M1369.03,1387.26c0,17.01-2.31,28.03-10.75,36.74-5.99,5.99-15.38,9.53-24.9,9.53-8.03,0-15.92-1.77-22.18-6.8-7.08-5.72-10.75-14.15-10.75-29.53v-34.43c0-11.7-1.09-13.06-13.2-14.15v-1.91h32.79v1.91c-11.57.27-12.52,3.27-12.52,14.15v30.21c0,24.09,11.02,34.7,29.39,34.7,20.96,0,28.3-16.06,28.44-39.73v-7.21c0-14.83-.14-20.41-1.09-24.49-.95-4.35-5.17-6.67-14.7-7.62v-1.91h33.48v1.91c-7.48.82-11.97,3.27-12.66,7.48-.68,4.22-1.36,9.66-1.36,24.63v6.53Z"/>
      <path d="M1398.28,1429.99c8.03-.54,11.84-3.27,12.93-7.08,1.09-4.08,1.5-11.57,1.5-25.31v-29.53c0-12.11-.68-11.43-3.13-14.42-2.31-2.72-5.17-4.22-12.38-5.03v-1.91h16.74l62.87,71.85h.41v-38.78c0-26.54-.14-30.07-16.06-31.16v-1.91h33.75v1.91c-7.89.68-11.29,3.27-12.52,7.21-1.22,4.22-1.36,11.16-1.36,23.95v53.07h-1.5l-62.73-71.44h-.27v36.2c.14,13.74.27,21.23,1.23,25.04,1.22,4.22,5.31,6.67,14.42,7.35v1.91h-33.88v-1.91Z"/>
      <path d="M1509.73,1429.99c12.79-.68,13.74-2.99,13.74-13.47v-53.34c0-11.7-1.09-14.02-12.38-14.56v-1.91h59.19c0,4.76.68,12.79,1.22,20.82l-2.31.41c-2.86-13.88-5.44-17.96-21.91-17.96h-12.79c-3.67,0-3.81.27-3.81,3.81v31.84h15.92c10.75,0,13.34-1.36,15.38-10.48h2.31v25.31h-2.31c-2.18-10.48-5.03-11.02-15.38-11.02h-15.92v26.54c0,12.79,5.58,12.79,16.87,12.79,8.3,0,16.47-.14,20.82-5.17,2.18-2.59,5.58-7.35,7.62-13.47h2.31c-1.23,5.04-3.81,17.15-4.9,21.77h-63.68v-1.91Z"/>
      <path d="M1634.1,1346.71h17.28l35.92,72.12,36.06-72.12h19.59v1.91c-12.65,1.22-13.88,2.58-13.34,16.19l.95,48.31c.41,14.02.95,15.78,13.74,16.87v1.91h-33.34v-1.91c11.97-.95,12.38-2.72,12.25-16.87l-.54-57.15h-.54l-36.88,74.43h-1.22l-33.48-69.81h-.27l-1.77,36.74c-.41,6.4-.54,11.02-.54,14.7,0,13.06,1.36,16.74,14.02,17.96v1.91h-32.79v-1.91c8.44-.68,11.29-2.99,12.38-8.44.95-4.08,2.04-12.25,2.99-26.26l1.91-24.9c.14-3.67.27-6.67.27-9.12,0-9.66-2.31-11.43-12.66-12.66v-1.91Z"/>
      <path d="M1761.73,1429.99c11.84-.54,12.93-2.86,12.93-13.61v-54.16c0-10.61-1.09-12.93-12.93-13.61v-1.91h32.93v1.91c-11.7.68-12.93,2.99-12.93,13.61v54.16c0,10.75,1.22,13.06,12.93,13.61v1.91h-32.93v-1.91Z"/>
      <path d="M1813.71,1429.99c11.29-.54,12.38-3.13,12.38-14.97v-51.57c0-11.57-1.09-14.15-13.34-14.83v-1.91h33.61v1.91c-11.84.68-12.93,3.27-12.93,14.83v23.54c2.72-.54,5.99-2.04,9.25-4.49,10.21-8.3,27.35-26.81,27.35-30.34,0-1.91-2.18-2.31-9.25-3.54v-1.91h33.34v1.91c-9.53,1.36-14.42,4.08-21.23,10.07-4.22,3.54-17.28,15.38-27.9,25.99,10.48,11.7,28.85,30.75,33.61,34.97,8.44,7.62,10.75,9.53,17.83,10.34v1.91h-16.87c-13.74-14.02-23.68-23.81-37.29-39.05-2.31-2.31-4.22-3.54-6.67-3.54-.68,0-1.5.14-2.18.27v25.45c.14,11.84,1.09,14.42,13.47,14.97v1.91h-33.2v-1.91Z"/>
      <path d="M1992.38,1387.26c0,17.01-2.31,28.03-10.75,36.74-5.99,5.99-15.38,9.53-24.9,9.53-8.03,0-15.92-1.77-22.18-6.8-7.08-5.72-10.75-14.15-10.75-29.53v-34.43c0-11.7-1.09-13.06-13.2-14.15v-1.91h32.79v1.91c-11.57.27-12.52,3.27-12.52,14.15v30.21c0,24.09,11.02,34.7,29.39,34.7,20.96,0,28.3-16.06,28.44-39.73v-7.21c0-14.83-.14-20.41-1.09-24.49-.95-4.35-5.17-6.67-14.7-7.62v-1.91h33.47v1.91c-7.48.82-11.97,3.27-12.66,7.48-.68,4.22-1.36,9.66-1.36,24.63v6.53Z"/>
      <path d="M2105.18,1366.44c-2.31-7.89-5.58-18.64-18.78-18.64-9.8,0-14.7,6.4-14.7,15.24,0,11.43,8.3,15.92,17.15,20.41,5.99,2.99,22.72,8.84,22.72,25.85,0,14.15-10.88,24.36-28.03,24.63-5.58-.27-10.34-1.09-13.74-2.18-3.27-1.09-5.04-2.04-5.85-2.59-1.09-3.54-2.45-13.34-3.27-21.5h2.18c2.18,7.35,8.03,22.72,23.95,22.72,10.48,0,16.87-5.71,16.87-17.69,0-13.74-11.16-18.37-18.37-22.45-1.22-.68-21.23-7.08-21.23-23.68,0-11.29,9.25-21.91,25.31-21.91,4.49,0,8.44.41,15.92,2.86.54,4.63,1.22,9.66,2.18,18.92h-2.31Z"/>
      <path d="M2130.49,1429.99c11.7-.54,12.79-2.86,12.79-13.61v-54.16c0-10.89,0-12.93-11.98-13.47v-2.04h32.25c8.57,0,29.66,1.09,29.66,23.68,0,19.87-18.91,28.03-31.71,26.67l-10.89-2.99v22.59c0,10.61.95,12.52,14.83,13.33v1.91h-34.97v-1.91ZM2150.63,1391.07c1.5.68,5.17,2.04,11.57,2.04,12.11,0,22.04-6.26,22.04-22.04,0-14.83-8.57-21.64-25.31-21.64-3.67,0-5.71,0-6.94.27-.95.14-1.36.54-1.36,3.4v37.97Z"/>
      <path d="M2211.73,1429.99c12.79-.68,13.74-2.99,13.74-13.47v-53.34c0-11.7-1.09-14.02-12.38-14.56v-1.91h59.19c0,4.76.68,12.79,1.22,20.82l-2.31.41c-2.86-13.88-5.44-17.96-21.91-17.96h-12.79c-3.68,0-3.81.27-3.81,3.81v31.84h15.92c10.75,0,13.34-1.36,15.38-10.48h2.31v25.31h-2.31c-2.18-10.48-5.04-11.02-15.38-11.02h-15.92v26.54c0,12.79,5.58,12.79,16.87,12.79,8.3,0,16.46-.14,20.82-5.17,2.18-2.59,5.58-7.35,7.62-13.47h2.31c-1.22,5.04-3.81,17.15-4.9,21.77h-63.69v-1.91Z"/>
      <path d="M2383.72,1407.13c-1.9,7.21-5.03,18.37-7.08,23-4.35.68-17.14,3.81-27.35,3.81-35.65,0-50.89-22.86-50.76-43.41,0-27.22,22.86-45.86,53.62-45.86,13.33,0,21.91,2.99,25.72,3.81,1.09,6.8,1.77,13.34,2.58,21.09l-2.31.41c-3.81-15.79-13.06-21.91-30.75-21.91-26.94,0-39.05,17.83-39.05,39.05,0,26.4,15.79,43.54,39.87,43.54,18.91,0,26.67-10.21,33.2-24.22l2.31.68Z"/>
      <path d="M2400.05,1429.99c11.84-.54,12.93-2.86,12.93-13.61v-54.16c0-10.61-1.09-12.93-12.93-13.61v-1.91h32.93v1.91c-11.7.68-12.93,2.99-12.93,13.61v54.16c0,10.75,1.22,13.06,12.93,13.61v1.91h-32.93v-1.91Z"/>
      <path d="M2506.19,1429.99c7.76-1.09,10.61-1.91,10.61-5.17,0-3.54-4.08-14.15-9.12-26.67h-31.43c-1.36,2.58-8.16,20.96-8.16,25.17,0,4.63,3.67,5.44,11.29,6.67v1.91h-30.89v-1.91c9.53-1.91,11.29-3.13,16.33-15.38l29.53-69.26,1.63-.68,9.12,25.17c6.26,17.01,12.38,34.02,17.55,47.08,4.08,10.07,5.17,11.57,14.7,13.06v1.91h-31.16v-1.91ZM2492.99,1357.33c-5.44,12.11-10.75,25.04-15.11,36.47h28.58l-13.2-36.47h-.27Z"/>
      <path d="M2617.23,1410.67c-.95,4.49-3.95,15.24-4.9,21.23h-59.19v-1.91c11.57-.54,12.52-2.86,12.52-14.29v-53.48c0-10.61-.95-12.93-13.06-13.61v-1.91h33.75v1.91c-12.38.68-13.61,2.99-13.61,13.61v51.57c0,14.42,3.27,14.83,17.14,14.83,8.17,0,14.7-1.63,17.83-4.9,1.77-2.45,4.9-7.08,7.08-13.06h2.45Z"/>
      <path d="M2733.29,1410.67c-.95,4.49-3.95,15.24-4.9,21.23h-59.2v-1.91c11.57-.54,12.52-2.86,12.52-14.29v-53.48c0-10.61-.95-12.93-13.06-13.61v-1.91h33.75v1.91c-12.38.68-13.61,2.99-13.61,13.61v51.57c0,14.42,3.27,14.83,17.15,14.83,8.16,0,14.7-1.63,17.83-4.9,1.77-2.45,4.9-7.08,7.08-13.06h2.45Z"/>
      <path d="M2748.53,1429.99c11.84-.54,12.93-2.86,12.93-13.61v-54.16c0-10.61-1.09-12.93-12.93-13.61v-1.91h32.93v1.91c-11.7.68-12.93,2.99-12.93,13.61v54.16c0,10.75,1.22,13.06,12.93,13.61v1.91h-32.93v-1.91Z"/>
      <path d="M2889.23,1348.62c-9.8,1.36-10.75,3.27-16.74,15.1-2.31,3.95-20,42.32-31.03,69.67h-1.77c-8.84-24.36-18.91-48.31-28.58-72.67-3.81-9.66-5.85-11.57-14.15-12.11v-1.91h29.39v1.91c-6.8.82-9.8,1.22-9.8,4.49,0,1.22.41,2.72,1.22,4.76,2.99,7.89,13.47,34.7,25.04,62.46h.14c2.72-5.72,26.13-58.51,26.13-66,0-4.08-3.27-4.49-10.34-5.71v-1.91h30.48v1.91Z"/>
      <path d="M2904.06,1429.99c12.79-.68,13.74-2.99,13.74-13.47v-53.34c0-11.7-1.09-14.02-12.38-14.56v-1.91h59.19c0,4.76.68,12.79,1.22,20.82l-2.31.41c-2.86-13.88-5.44-17.96-21.91-17.96h-12.79c-3.68,0-3.81.27-3.81,3.81v31.84h15.92c10.75,0,13.34-1.36,15.38-10.48h2.31v25.31h-2.31c-2.18-10.48-5.04-11.02-15.38-11.02h-15.92v26.54c0,12.79,5.58,12.79,16.87,12.79,8.3,0,16.46-.14,20.82-5.17,2.18-2.59,5.58-7.35,7.62-13.47h2.31c-1.22,5.04-3.81,17.15-4.9,21.77h-63.69v-1.91Z"/>
      <path d="M3077.01,1417.07c-1.5,4.22-2.59,8.44-4.22,14.83h-47.76v-2.18c7.48-7.48,15.1-15.1,21.63-22.86,7.08-8.17,18.23-18.78,18.23-32.39,0-12.38-6.39-18.92-17.14-18.92s-15.92,8.17-18.92,12.66l-2.04-1.63,7.35-10.21c3.67-3.81,9.8-7.21,17.01-7.21,10.75,0,21.09,7.62,21.09,20.82,0,11.97-6.4,20.55-17.28,32.25l-21.09,23h28.03c6.8,0,8.84-.68,12.38-8.98l2.72.82Z"/>
      <path d="M3149.13,1391.21c0,19.05-7.21,42.18-25.72,42.18s-26.26-23.13-26.26-42.18,7.48-42.05,26.26-42.05,25.72,23.95,25.72,42.05ZM3123.41,1352.29c-14.56,0-18.37,20.14-18.37,39.05s3.81,39.05,18.51,39.05,17.96-20.55,17.96-39.05-3.95-39.05-17.96-39.05h-.13Z"/>
      <path d="M3219.07,1417.07c-1.5,4.22-2.59,8.44-4.22,14.83h-47.76v-2.18c7.48-7.48,15.11-15.1,21.64-22.86,7.08-8.17,18.23-18.78,18.23-32.39,0-12.38-6.4-18.92-17.15-18.92s-15.92,8.17-18.91,12.66l-2.04-1.63,7.35-10.21c3.67-3.81,9.8-7.21,17.01-7.21,10.75,0,21.09,7.62,21.09,20.82,0,11.97-6.39,20.55-17.28,32.25l-21.09,23h28.03c6.8,0,8.85-.68,12.38-8.98l2.72.82Z"/>
      <path d="M3258.94,1382.91c2.86-1.5,5.72-2.18,8.85-2.18,13.88,0,23.41,11.43,23.41,24.36,0,15.51-10.48,28.3-26.4,28.3-13.2,0-25.31-11.84-25.31-32.39,0-22.86,13.47-45.86,49.26-52.93l.68,2.86c-4.9.82-9.66,2.31-14.7,4.49-9.39,4.08-21.36,13.2-25.99,32.25l10.21-4.76ZM3248.06,1390.94c-.54,2.58-.68,5.71-.68,9.39,0,16.33,6.67,30.07,20,30.07s16.33-12.52,16.33-21.77c0-10.07-5.58-22.45-20-22.45-5.58,0-11.02,2.04-15.65,4.76Z"/>
    </g>
  </g>
  <g>
    <g>
      <g id="g168453">
        <path id="path168443" d="M2266.38,1826.09h23.15v-72.73c0-20.35-.4-42-2-70.93h2.59l4.29,17.76,27.34,125.91h23.55l26.84-125.91,4.69-17.76h2.39c-1.2,25.64-1.9,48.79-1.9,70.93v72.73h23.25v-167.61h-39.51l-14.17,61.96c-5.99,25.74-10.28,57.67-12.77,73.93h-1.9c-1.8-16.56-6.29-48.39-12.17-73.73l-14.57-62.16h-39.11v167.61Z"/>
        <path id="path168445" d="M2446.86,1827.98c14.57,0,23.65-6.09,31.13-17.06h1.1l1.1,15.16h19.85v-123.31h-26.34v99.07c-2.79,4.89-9.28,8.48-15.36,8.48-7.68,0-10.08-6.09-10.08-16.26v-91.29h-26.24v92.48c0,20.05,5.79,32.72,24.84,32.72h0Z"/>
        <path id="path168447" d="M2552.13,1828.68c24.14,0,37.61-10.68,37.61-32.52,0-19.85-9.98-27.94-33.72-44.1-10.87-7.18-16.76-11.67-16.76-22.25,0-7.88,4.89-12.07,13.77-12.07,9.68,0,12.97,6.39,13.37,24.54l21.55-1.2c1.8-28.43-8.38-40.61-34.52-40.61-24.74,0-36.61,10.67-36.61,31.83,0,19.55,9.28,28.43,26.74,40.61,15.46,10.68,23.94,17.36,23.94,26.24,0,7.28-5.09,12.57-13.97,12.57-10.18,0-15.96-8.78-14.97-22.05l-21.85.4c-3.39,25.54,8.58,38.61,35.42,38.61h0Z"/>
        <path id="path168449" d="M2618.31,1687.11c8.98,0,13.17-2.99,13.17-15.36,0-11.57-4.49-15.16-13.17-15.16s-13.07,3.19-13.07,15.16,4.09,15.36,13.07,15.36ZM2606.14,1826.09h25.24v-123.31h-25.24v123.31Z"/>
        <path id="path168451" d="M2687.71,1828.08c12.57,0,19.65-1.5,25.34-6.88,8.48-7.38,11.97-18.86,11.37-38.21l-23.05-1.2c0,21.15-3.39,29.13-13.27,29.13-10.87,0-12.67-11.87-12.67-33.42v-25.54c0-23.55,2.29-34.72,12.87-34.72,8.78,0,12.27,7.38,12.27,30.93l22.85-1.6c1.6-16.86-.1-30.63-8.08-38.31-5.99-5.59-14.87-7.78-26.64-7.78-30.23,0-39.61,19.15-39.61,55.57v16.86c0,36.42,7.08,55.17,38.61,55.17h0Z"/>
      </g>
      <g id="g169162">
        <path id="path168455" class="cls-3" d="M2095.66,1867.32c71.59,0,129.7-58.1,129.7-129.7s-58.1-129.7-129.7-129.7-129.7,58.1-129.7,129.7,58.1,129.7,129.7,129.7Z"/>
        <path id="path168457" class="cls-2" d="M2170.48,1737.62c0,41.34-33.48,74.83-74.83,74.83s-74.83-33.48-74.83-74.83,33.48-74.83,74.83-74.83,74.83,33.48,74.83,74.83Z"/>
        <path id="path168459" class="cls-1" d="M2143.05,1737.62l-74.83-42.4v84.8l74.83-42.4Z"/>
      </g>
    </g>
    <g>
      <path d="M973.23,1674.41v-4.98h23.48v6.8h-1.48l-22-1.82ZM998.18,1781.92l23.06,1.82v4.98h-48.02v-4.98l22-1.82h2.96ZM991.81,1724.28c0-18.33,0-36.73-.43-54.86h10.66c-.43,17.98-.43,36.38-.43,54.86v11.42c0,17.21,0,34.89.43,53.01h-10.66c.43-17.98.43-36.38.43-54.86v-9.58ZM1013.13,1739.73h-16.42v-5.41h16.24c27.77,0,38.53-12.55,38.53-30.3,0-18.74-10.14-28.96-33.61-28.96h-21.17v-5.62h23.09c27.94,0,41.84,13.57,41.84,34.59s-14.91,35.72-48.52,35.72Z"/>
      <path d="M1073.74,1747.35c0-29.9,20-44.38,39.83-44.38s39.83,14.49,39.83,44.38-20.15,43.68-39.83,43.68-39.83-13.78-39.83-43.68ZM1143.41,1747.35c0-24.45-11.62-39.04-29.83-39.04s-29.83,14.59-29.83,39.04,11.48,38.33,29.83,38.33,29.83-13.89,29.83-38.33Z"/>
      <path d="M1177.59,1711.96l-15.81-1.85v-4.84h37.24v4.84l-19,1.85h-2.43ZM1234.85,1705.26l27.36,75.27-2.89-.73,23.5-74.54h6.66l-28.25,84.52h-4.27c-16.17-42.94-20.84-56.54-26.62-76.18h3.17l-27.55,76.18h-4.38l-30.17-84.52h10.11l25.41,75.58-3.32-.31,27.42-75.27h3.8ZM1215.22,1710.1v-4.84h35.63v4.84l-16.45,1.85h-2.43l-16.75-1.85ZM1283.29,1711.96l-17.9-1.85v-4.84h32.91v4.84l-12.59,1.85h-2.43Z"/>
      <path d="M1378.09,1736.03c0,4.17-.43,7.5-1.15,10.01l-66.37-.11v-5.23l52.08.1c5.01,0,6.46-2.71,6.46-7.77,0-12.81-9.06-24.74-24.12-24.74-16.09,0-29.4,14.69-29.4,36.75,0,26.77,14.71,38.7,32.16,38.7,11.51,0,20.09-4.4,26.99-11.83l2.86,2.45c-6.9,10.36-18.31,16.65-31.9,16.65-21.54,0-39.75-14.57-39.75-43.88,0-26.97,18.49-44.18,39.41-44.18s32.74,14.06,32.74,33.07Z"/>
      <path d="M1409.62,1751.56v-8.53c0-11.3-.18-20.46-.54-28.69l-15.77-.65v-4.62l21.9-5.59,2.17,1.35,1.09,22.96v23.76c0,10.97.18,29.2.54,37.16h-9.93c.36-7.96.54-26.19.54-37.16ZM1394.32,1784.1l18.72-2.07h2.43l19.46,2.07v4.62h-40.61v-4.62ZM1413.94,1727.67h6.63l-3.11,1.76c5.33-15.72,17.26-26.47,29.47-26.47,5.75,0,10.72,2.37,12.24,5.28,0,5.49-2.39,8.2-7.45,8.2-3.6,0-6.28-1.7-9.73-4.56l-4.11-3.44,8.81-.2c-12.86,2.31-21.78,11.26-28.48,28.14h-4.28v-8.71Z"/>
      <path d="M1538.7,1736.03c0,4.17-.43,7.5-1.15,10.01l-66.37-.11v-5.23l52.08.1c5.01,0,6.46-2.71,6.46-7.77,0-12.81-9.06-24.74-24.12-24.74-16.09,0-29.4,14.69-29.4,36.75,0,26.77,14.71,38.7,32.16,38.7,11.51,0,20.09-4.4,26.99-11.83l2.86,2.45c-6.9,10.36-18.31,16.65-31.9,16.65-21.54,0-39.75-14.57-39.75-43.88,0-26.97,18.49-44.18,39.41-44.18s32.74,14.06,32.74,33.07Z"/>
      <path d="M1593.99,1784.43c10.56,0,18.45-4.31,27.26-15.49l1.62,3.52c-8.11,12.77-18.27,18.55-30.81,18.55-21.3,0-35.94-17.87-35.94-42.9,0-27.74,16.4-45.16,38.2-45.16,9.83,0,19.92,4.7,28.74,17.45l-1.59,3.24c-9.15-9.91-16.99-14.1-26.27-14.1-16.15,0-29.44,11.98-29.44,38.42,0,24.27,12.28,36.46,28.24,36.46ZM1645.7,1784.1v4.62l-25.81,1.35-.41-17.11v-52.58l.22-1.46v-52.14l-16-.72v-4.62l22.62-4.5,2.52,1.42-.51,24.71v105.66l-2.66-6.4,20.04,1.78Z"/>
      <path d="M1700.74,1784.1l19.64-2.18-4.66,6.8c.36-7.96.54-26.19.54-37.16v-84.78l-15.78-.72v-4.62l22.18-4.5,2.73,1.42-.51,25.13v35.55l.22,1.88v54.36l-1.05,14.6-23.32-1.14v-4.62ZM1778.82,1746.55c0-24.19-11.45-37-27.36-37-8.93,0-18.16,3.78-29.16,16.06l-1.62-2.87c9.69-14.31,22.02-19.78,33.18-19.78,20.34,0,34.6,17.15,34.6,42.94,0,27.25-14.76,45.12-36.23,45.12-10.54,0-22.02-4.57-31.44-19.41l1.51-2.52c9.78,10.84,18.75,15.34,28.8,15.34,14.76,0,27.72-11.6,27.72-37.89Z"/>
      <path d="M1793.56,1825.58c.83-3.38,4.34-5.13,8.25-5.13,3.61,0,6.99,1.66,10.89,4.97l4.72,4.02-4.99,2.01-3.79-2.84c11.52-2.38,20.95-13.96,26.72-29.49l5.68-15.29,28.87-78.56h6.73l-34.57,90.89c-9.78,25.67-21.02,37.33-34.39,37.33-6.79,0-13.28-2.79-14.13-7.91ZM1811.05,1711.6l-16.67-1.71v-4.62h38.12v4.69l-19.03,1.64h-2.43ZM1839.77,1795.2l-35.78-89.93h10.33l29.94,79.37-4.5,10.57ZM1869.7,1711.6l-18-1.71v-4.62h33.87v4.62l-13.44,1.71h-2.42Z"/>
    </g>
  </g>
</svg>