<?xml version="1.0" encoding="UTF-8"?>
<svg id="_图层_1" data-name="图层 1" xmlns="http://www.w3.org/2000/svg" viewBox="0 0 2160 800">
  <defs>
    <style>
      .cls-1 {
        fill: #3a0822;
      }

      .cls-2 {
        fill: #e2a1b8;
      }

      .cls-3 {
        fill: #007bc2;
      }
    </style>
  </defs>
  <g>
    <path class="cls-2" d="M188.32,116.44c0-8.58,1.61-15.2,4.84-19.86,3.23-4.66,7.63-6.99,13.22-6.99s10.23,2.42,13.35,7.25c3.12,4.84,4.67,11.37,4.67,19.6s-1.61,15.13-4.82,19.8c-3.22,4.67-7.62,7.01-13.2,7.01s-10.3-2.43-13.41-7.29-4.66-11.37-4.66-19.52ZM195.95,116.44c0,7.43.9,12.75,2.69,15.95s4.38,4.81,7.74,4.81,5.95-1.61,7.74-4.82c1.8-3.22,2.69-8.53,2.69-15.93s-.91-12.88-2.73-16.04c-1.82-3.17-4.39-4.75-7.7-4.75-3.74,0-6.41,1.8-8.02,5.4-1.61,3.6-2.41,8.73-2.41,15.39Z"/>
    <path class="cls-2" d="M237.17,135.92v-39.01h-6.25v-6.51h17.8l13.69,35.66,13.84-35.66h17.99v6.51h-6.28v39.01h6.28v6.51h-19.6v-6.51h6.21v-39.01l-17.95,46.04h-1.53l-17.76-46.04v39.01h5.72v6.51h-18.4v-6.51h6.25Z"/>
    <path class="cls-2" d="M297.53,148.19h39.19v3.81h-39.19v-3.81Z"/>
    <path class="cls-2" d="M346.27,135.92v-39.01h-6.54v-6.51h18.59c5.46,0,9.55.39,12.27,1.16,2.72.77,4.99,2.52,6.82,5.25s2.75,5.95,2.75,9.67c0,2.97-.6,5.63-1.81,7.98-1.21,2.36-2.71,4.1-4.49,5.22-1.78,1.12-3.79,1.88-6.02,2.26-2.23.39-5.6.58-10.12.58h-3.59v13.39h6.73v6.51h-21.13v-6.51h6.54ZM354.12,116.25h4.49c5.11,0,8.65-.73,10.62-2.19,1.97-1.46,2.95-4.03,2.95-7.72,0-2.34-.52-4.29-1.57-5.83-1.05-1.55-2.34-2.53-3.89-2.95-1.55-.42-4.13-.64-7.74-.64h-4.86v19.33Z"/>
    <path class="cls-2" d="M423.21,136.11v-39.38h-7.11v-6.25h14.21v45.62h6.77v6.32h-20.98v-6.32h7.11Z"/>
    <path class="cls-2" d="M451.19,116.44c0-8.58,1.61-15.2,4.84-19.86,3.23-4.66,7.63-6.99,13.22-6.99s10.23,2.42,13.35,7.25c3.12,4.84,4.67,11.37,4.67,19.6s-1.61,15.13-4.82,19.8c-3.22,4.67-7.62,7.01-13.2,7.01s-10.3-2.43-13.41-7.29-4.66-11.37-4.66-19.52ZM458.82,116.44c0,7.43.9,12.75,2.69,15.95s4.38,4.81,7.74,4.81,5.95-1.61,7.74-4.82c1.8-3.22,2.69-8.53,2.69-15.93s-.91-12.88-2.73-16.04c-1.82-3.17-4.39-4.75-7.7-4.75-3.74,0-6.41,1.8-8.02,5.4-1.61,3.6-2.41,8.73-2.41,15.39Z"/>
    <path class="cls-2" d="M494.24,112.55v-6.32h4.71v-5.57l7.11-6.51v12.08h6.69v6.32h-6.69v17.58c0,2.82.16,4.56.47,5.22.31.66,1.09.99,2.34.99,1.32,0,2.62-.25,3.89-.75v6.47c-1.82.65-3.64.97-5.46.97-2.17,0-3.93-.48-5.27-1.44s-2.19-2.16-2.54-3.61c-.35-1.45-.52-3.94-.52-7.48v-17.95h-4.71Z"/>
    <path class="cls-2" d="M525.07,136.11v-39.38h-6.54v-6.32h13.65v19.97c4.26-3.44,8.31-5.16,12.15-5.16,2.39,0,4.36.5,5.91,1.5,1.55,1,2.6,2.31,3.16,3.95.56,1.63.84,4.02.84,7.16v18.29h6.17v6.32h-13.28v-22.14c0-2.74-.09-4.57-.26-5.5-.17-.92-.65-1.68-1.44-2.28-.79-.6-1.71-.9-2.79-.9-2.74,0-6.23,1.56-10.47,4.67v19.82h6.28v6.32h-19.93v-6.32h6.54Z"/>
    <path class="cls-2" d="M620.13,124.14h-18.74l-3.98,11.78h6.32v6.51h-20.49v-6.51h6.29l14.2-39.64h-6.29v-5.87h26.59v5.87h-6.5l14.56,39.64h5.82v6.51h-20.38v-6.51h6.47l-3.87-11.78ZM618.17,118.04l-6.92-21.77h-.71l-7.21,21.77h14.84Z"/>
    <path class="cls-2" d="M647.04,135.92v-39.01h-7.44v-6.51h17.76l22.82,40.44v-33.93h-7.37v-6.51h21.35v6.51h-7.67v46.04h-8.06l-24.96-44.4v37.37h7.44v6.51h-21.32v-6.51h7.44Z"/>
    <path class="cls-2" d="M704.04,135.92v-39.01h-7.44v-6.51h17.76l22.82,40.44v-33.93h-7.37v-6.51h21.35v6.51h-7.67v46.04h-8.06l-24.96-44.4v37.37h7.44v6.51h-21.32v-6.51h7.44Z"/>
    <path class="cls-2" d="M761.27,135.92v-39.01h-5.61v-6.51h19.07v6.51h-5.61v39.01h5.61v6.51h-19.07v-6.51h5.61Z"/>
    <path class="cls-2" d="M802.88,142.95l-17.48-46.04h-6.44v-6.51h20.53v6.51h-6.01l13.25,34.93,12.89-34.93h-6.07v-6.51h19.97v6.51h-6.32l-17.12,46.04h-7.22Z"/>
    <path class="cls-2" d="M844.08,135.92v-39.01h-6.73v-6.51h43.23v15.67h-6.43v-9.16h-22.21v15.48h19.33v6.51h-19.33v17.02h22.21v-9.46h6.43v15.97h-43.23v-6.51h6.73Z"/>
    <path class="cls-2" d="M893.15,135.92v-39.01h-7.14v-6.51h21.13c4.41,0,7.92.34,10.51,1.03,2.59.69,4.74,2.13,6.43,4.34,1.69,2.21,2.54,4.95,2.54,8.25,0,6.88-3.57,11.21-10.72,12.98l9.19,18.93h6.36v6.51h-11.27l-11.84-24.31h-7.33v17.8h6.66v6.51h-21.65v-6.51h7.14ZM901.01,111.61h6.13c2.97,0,5.15-.19,6.56-.58,1.41-.39,2.56-1.17,3.46-2.36.9-1.18,1.35-2.77,1.35-4.77,0-1.7-.46-3.13-1.37-4.3-.91-1.17-2.03-1.91-3.37-2.23-1.33-.31-3.37-.47-6.11-.47h-6.66v14.7Z"/>
    <path class="cls-2" d="M935.87,142.43v-18.89h6.51v4.6c3.12,5.66,7.19,8.49,12.23,8.49,2.57,0,4.74-.79,6.51-2.36,1.77-1.57,2.66-3.63,2.66-6.17s-.72-4.24-2.17-5.33c-1.45-1.08-4.18-2.16-8.19-3.23-4.66-1.25-8.12-2.42-10.36-3.53-2.24-1.11-4.03-2.69-5.37-4.75-1.33-2.06-2-4.49-2-7.31,0-4.36,1.45-7.85,4.36-10.45,2.9-2.6,6.55-3.91,10.94-3.91s8.03,1.35,11.59,4.04v-3.48h6.36v15.78h-6.36v-3.63c-2.67-4.01-6.35-6.02-11.03-6.02-2.84,0-5.02.65-6.54,1.96-1.52,1.31-2.28,2.87-2.28,4.69,0,1.4.39,2.62,1.16,3.68.77,1.06,1.76,1.84,2.95,2.34,1.2.5,3.55,1.2,7.07,2.09,4.59,1.19,7.92,2.31,9.99,3.34,2.07,1.04,3.85,2.76,5.35,5.18,1.5,2.42,2.24,5.2,2.24,8.34,0,4.44-1.56,8.11-4.69,11-3.13,2.89-7,4.34-11.61,4.34s-9-1.71-12.79-5.12v4.3h-6.51Z"/>
    <path class="cls-2" d="M1012.07,124.14h-18.74l-3.98,11.78h6.32v6.51h-20.49v-6.51h6.29l14.2-39.64h-6.29v-5.87h26.59v5.87h-6.5l14.56,39.64h5.82v6.51h-20.38v-6.51h6.47l-3.87-11.78ZM1010.11,118.04l-6.92-21.77h-.71l-7.21,21.77h14.84Z"/>
    <path class="cls-2" d="M1039.29,135.92v-39.01h-7.14v-6.51h21.13c4.41,0,7.92.34,10.51,1.03,2.59.69,4.74,2.13,6.43,4.34,1.7,2.21,2.54,4.95,2.54,8.25,0,6.88-3.57,11.21-10.72,12.98l9.19,18.93h6.36v6.51h-11.27l-11.84-24.31h-7.33v17.8h6.66v6.51h-21.65v-6.51h7.14ZM1047.14,111.61h6.13c2.97,0,5.15-.19,6.56-.58,1.41-.39,2.56-1.17,3.46-2.36.9-1.18,1.35-2.77,1.35-4.77,0-1.7-.46-3.13-1.37-4.3-.91-1.17-2.03-1.91-3.37-2.23-1.33-.31-3.37-.47-6.11-.47h-6.66v14.7Z"/>
    <path class="cls-2" d="M1098.87,135.92v-17.17l-15.48-21.84h-6.36v-6.51h21.39v6.51h-6.55l11.49,16.08,10.49-16.08h-6.53v-6.51h20.72v6.51h-6.88l-14.44,21.84v17.17h7.11v6.51h-21.95v-6.51h6.99Z"/>
    <path class="cls-2" d="M1158.34,135.92v-39.01h-6.54v-6.51h18.59c5.46,0,9.55.39,12.27,1.16,2.72.77,4.99,2.52,6.83,5.25,1.83,2.73,2.75,5.95,2.75,9.67,0,2.97-.61,5.63-1.81,7.98s-2.71,4.1-4.49,5.22c-1.78,1.12-3.79,1.88-6.02,2.26-2.23.39-5.6.58-10.12.58h-3.59v13.39h6.73v6.51h-21.13v-6.51h6.54ZM1166.2,116.25h4.49c5.11,0,8.65-.73,10.62-2.19,1.97-1.46,2.95-4.03,2.95-7.72,0-2.34-.52-4.29-1.57-5.83-1.05-1.55-2.34-2.53-3.89-2.95-1.55-.42-4.13-.64-7.74-.64h-4.86v19.33Z"/>
    <path class="cls-2" d="M1204.2,135.92v-39.01h-7.14v-6.51h21.13c4.41,0,7.92.34,10.51,1.03,2.59.69,4.74,2.13,6.43,4.34,1.7,2.21,2.54,4.95,2.54,8.25,0,6.88-3.57,11.21-10.72,12.98l9.19,18.93h6.36v6.51h-11.27l-11.84-24.31h-7.33v17.8h6.66v6.51h-21.65v-6.51h7.14ZM1212.05,111.61h6.13c2.97,0,5.15-.19,6.56-.58,1.41-.39,2.56-1.17,3.46-2.36.9-1.18,1.35-2.77,1.35-4.77,0-1.7-.46-3.13-1.37-4.3s-2.03-1.91-3.37-2.23c-1.33-.31-3.37-.47-6.12-.47h-6.66v14.7Z"/>
    <path class="cls-2" d="M1246.54,116.17c0-7.55,2.47-13.87,7.4-18.96,4.94-5.09,11.37-7.63,19.3-7.63s14.52,2.54,19.56,7.63c5.04,5.09,7.55,11.46,7.55,19.11s-2.56,14.24-7.68,19.32c-5.12,5.07-11.64,7.61-19.54,7.61-5.04,0-9.67-1.2-13.89-3.61-4.23-2.41-7.4-5.76-9.52-10.06-2.12-4.3-3.18-8.77-3.18-13.41ZM1255.11,116.21c0,5.71,1.67,10.5,5.01,14.36,3.34,3.86,7.73,5.8,13.16,5.8s9.81-1.98,13.28-5.93c3.46-3.95,5.2-8.67,5.2-14.15s-1.76-10.22-5.29-14.04c-3.53-3.83-7.96-5.74-13.29-5.74s-9.65,1.88-13.01,5.65c-3.37,3.76-5.05,8.45-5.05,14.06Z"/>
    <path class="cls-2" d="M1303.36,157.87v-7.29c1.94.5,3.81.75,5.61.75,2.24,0,3.73-.62,4.47-1.85.74-1.23,1.1-3.71,1.1-7.42v-45.14h-6.66v-6.51h21.17v6.51h-6.66v45.51c0,3.91-.29,6.89-.88,8.92-.59,2.03-2,3.77-4.23,5.22-2.23,1.45-4.88,2.17-7.95,2.17-2.12,0-4.11-.29-5.98-.86Z"/>
    <path class="cls-2" d="M1340.76,135.92v-39.01h-6.73v-6.51h43.23v15.67h-6.43v-9.16h-22.21v15.48h19.33v6.51h-19.33v17.02h22.21v-9.46h6.43v15.97h-43.23v-6.51h6.73Z"/>
    <path class="cls-2" d="M1429.47,121.26l6.77,3.78c-1.52,5.78-4.59,10.27-9.22,13.44s-9.94,4.77-15.95,4.77c-7.88,0-14.2-2.56-18.96-7.67-4.76-5.11-7.14-11.43-7.14-18.96,0-8.25,2.39-14.82,7.18-19.71,4.79-4.89,11.03-7.33,18.74-7.33,6.81,0,12.53,1.86,17.17,5.57v-4.75h6.73v16.72h-6.73c-1.5-3.39-3.8-6.01-6.92-7.87-3.12-1.86-6.4-2.79-9.84-2.79-5.19,0-9.44,1.87-12.77,5.61-3.33,3.74-4.99,8.46-4.99,14.17s1.78,10.65,5.35,14.36,7.79,5.57,12.68,5.57c4.01,0,7.67-1.29,10.96-3.87,3.29-2.58,5.61-6.26,6.96-11.05Z"/>
    <path class="cls-2" d="M1459.88,135.92v-39.01h-10.73v13.28h-6.43v-19.78h42.15v19.78h-6.43v-13.28h-10.7v39.01h6.77v6.51h-21.28v-6.51h6.66Z"/>
    <path class="cls-2" d="M1516.67,135.92v-39.01h-6.58v-6.51h40.35v15.67h-6.43v-9.16h-19.48v15.41h16.79v6.51h-16.79v17.09h6.66v6.51h-21.09v-6.51h6.58Z"/>
    <path class="cls-2" d="M1560.92,135.92v-39.01h-5.61v-6.51h19.07v6.51h-5.61v39.01h5.61v6.51h-19.07v-6.51h5.61Z"/>
    <path class="cls-2" d="M1586.58,135.92v-39.01h-7.44v-6.51h17.76l22.82,40.44v-33.93h-7.37v-6.51h21.35v6.51h-7.67v46.04h-8.06l-24.96-44.4v37.37h7.44v6.51h-21.32v-6.51h7.44Z"/>
    <path class="cls-2" d="M1670.9,124.14h-18.74l-3.98,11.78h6.32v6.51h-20.49v-6.51h6.29l14.2-39.64h-6.29v-5.87h26.59v5.87h-6.5l14.56,39.64h5.82v6.51h-20.38v-6.51h6.47l-3.87-11.78ZM1668.94,118.04l-6.92-21.77h-.71l-7.21,21.77h14.84Z"/>
    <path class="cls-2" d="M1697.81,135.92v-39.01h-6.73v-6.51h21.28v6.51h-6.39v39.01h15.93v-17.69h7.33v24.2h-38.14v-6.51h6.73Z"/>
    <path class="cls-2" d="M1740.64,135.92v-39.01h-6.73v-6.51h43.23v15.67h-6.43v-9.16h-22.21v15.48h19.33v6.51h-19.33v17.02h22.21v-9.46h6.43v15.97h-43.23v-6.51h6.73Z"/>
    <path class="cls-2" d="M1810.48,135.92v-39.01h-6.73v-6.51h21.28v6.51h-6.39v39.01h15.93v-17.69h7.33v24.2h-38.14v-6.51h6.73Z"/>
    <path class="cls-2" d="M1852.52,135.92v-39.01h-5.61v-6.51h19.07v6.51h-5.61v39.01h5.61v6.51h-19.07v-6.51h5.61Z"/>
    <path class="cls-2" d="M1894.13,142.95l-17.48-46.04h-6.44v-6.51h20.53v6.51h-6.01l13.25,34.93,12.89-34.93h-6.07v-6.51h19.97v6.51h-6.32l-17.12,46.04h-7.22Z"/>
    <path class="cls-2" d="M1935.33,135.92v-39.01h-6.73v-6.51h43.23v15.67h-6.43v-9.16h-22.21v15.48h19.33v6.51h-19.33v17.02h22.21v-9.46h6.43v15.97h-43.23v-6.51h6.73Z"/>
  </g>
  <g>
    <path class="cls-1" d="M65.13,554.21l11.81-50.49h30.34l20.38-88.51-54.42-132.65h-31.73l11.81-50.49h133.62l-11.77,50.49h-25.85l32.55,89.13,75.93-89.13h-26.63l11.81-50.49h129.46l-11.33,50.49h-30.29l-120.5,132.88-20.81,88.28h33.1l-12.27,50.49H65.13Z"/>
    <path class="cls-1" d="M425.99,558.38c-40.61,0-74.3-12.65-101.09-37.95-26.79-25.3-40.18-57.16-40.18-95.58,0-52.45,19.84-98.66,59.52-138.62,39.68-39.96,88.31-59.94,145.9-59.94,44.46,0,79.86,12.92,106.18,38.77,26.32,25.84,39.49,57.58,39.49,95.23,0,55.08-20.34,101.86-61.02,140.36-40.68,38.49-90.28,57.74-148.79,57.74ZM550.35,351.9c0-20.18-6.37-36.67-19.11-49.45-12.74-12.79-29.14-19.18-49.21-19.18-32.89,0-59.75,15.64-80.59,46.91s-31.26,64.63-31.26,100.06c0,22.18,6.06,39.59,18.18,52.23,12.12,12.64,28.83,18.95,50.14,18.95,34.74,0,62.06-16.25,81.98-48.76,19.92-32.51,29.87-66.09,29.87-100.76Z"/>
    <path class="cls-1" d="M633.29,282.56l11.35-50.49h139.88l-11.35,50.49h-33.12l-37.54,160.25c-1.7,7.41-2.55,14.21-2.55,20.38,0,26.56,14.75,39.84,44.24,39.84,16.52,0,30.04-5.91,40.54-17.72,10.5-11.81,18.84-31.05,25.02-57.73l33.58-145.02h-30.34l11.35-50.49h110.7l-11.56,50.49h-24.52l-37.54,162.12c-8.96,38.59-24.28,67.39-45.97,86.38-21.7,18.99-51.07,28.48-88.13,28.48-28.72,0-53.93-6.95-75.62-20.84-21.7-13.89-32.54-36.74-32.54-68.55,0-12.19,1.7-25.77,5.09-40.73l33.81-146.85h-24.78Z"/>
    <path class="cls-1" d="M963.44,554.21l12.04-50.49h30.34l50.71-221.16h-30.33l11.8-50.49h119.91l73.71,223.25,39.28-172.76h-30.25l11.81-50.49h116.03l-11.81,50.49h-30.34l-62.86,274.43h-70.65l-84.18-259.14-46.99,205.88h33.79l-11.81,50.49h-120.19Z"/>
    <path class="cls-1" d="M1291.18,554.21l12.04-50.49h30.34l51.18-221.16h-30.34l11.35-50.49h263.31l-23.85,102.59h-60.21l11.81-52.11h-91.01l-18.9,82.44h75.87l-11.83,50.49h-75.61l-20.23,88.23h92.85l12.04-50.49h58.13l-23.62,100.97h-263.31Z"/>
    <path class="cls-1" d="M1544.81,554.21l12.04-50.49h30.34l51.18-221.16h-30.34l11.35-50.49h263.31l-23.85,102.59h-60.21l11.81-52.11h-91.01l-18.9,82.44h75.87l-11.83,50.49h-75.61l-20.23,88.23h92.85l12.04-50.49h58.13l-23.62,100.97h-263.31Z"/>
    <path class="cls-1" d="M1790.57,554.21l11.81-50.49h38.91l50.72-221.16h-38.91l11.81-50.49h132.93c50.49,0,88.93,12.82,115.33,38.44,26.4,25.63,39.6,60.14,39.6,103.52,0,52.65-16.37,95.84-49.1,129.57-32.73,33.74-75.5,50.6-128.3,50.6h-184.8ZM1922.79,503.73h48.87c30.88,0,54.81-15.25,71.8-45.76,16.99-30.5,25.48-63.55,25.48-99.14,0-22.64-6.87-41.02-20.61-55.12-13.74-14.1-32.2-21.15-55.36-21.15h-19.46l-50.72,221.16Z"/>
  </g>
  <g>
    <g id="layer1">
      <g id="g5075">
        <path id="path5077" class="cls-3" d="M1324.12,688.4h27.22c2.34,0,2.34.74,2.34,1.96v10.04c0,2.54-.4,3.39-4.09,3.39h-25.1c-.97,0-2.29.39-2.29-1.56v-7.77c0-1.33-.29-1.81-1.75-1.81h-5.68c-.85,0-1.69,0-1.69,1.81v13.69c0,4.6,1.92,7.49,7.86,7.49h32.81c4.84,0,9.14-2.54,9.14-8.71v-19.97c0-4.37-3.28-7.76-9.2-7.76h-28.76c-1.45,0-2.72-.23-2.72-2.29v-9.21c0-1.08.59-1.91,2.41-1.91h27.07c2.55,0,2.01.59,2.01,2.4v5.32c0,1.46,1.15,1.46,2.47,1.46h5.08c1.47,0,1.65-.73,1.65-1.82v-8.2c0-8.11-2.85-11.05-9.63-11.05h-28.65c-7.5,0-11.53.13-11.61,11.05v15.93c0,5.11,3.14,7.49,11.13,7.49"/>
      </g>
      <g id="g5079">
        <path id="path5081" class="cls-3" d="M1381.76,685.89v-17.19c0-2.31,1.27-2.9,2.73-2.9h26.39c1.82,0,2.35.47,2.35,1.91v34.04c0,2.05-1.14,2.05-2.35,2.05h-26.51c-1.82,0-2.61-.36-2.61-2.16v-15.75ZM1381.87,715.66h30.42c6.78,0,10.15-2.26,10.15-10.26v-40.43c0-7.42-3.1-11.05-9.79-11.05h-30.11c-6.29,0-10,2.58-10,11.05v41.75c0,5.21,2.42,8.93,9.32,8.93"/>
      </g>
      <g id="g5083">
        <path id="path5085" class="cls-3" d="M1090.81,665.8h8.18v38h-7.94c-.77,0-1.38.62-1.38,1.38v9.12c0,.77.61,1.36,1.38,1.36h48.09c.76,0,1.37-.59,1.37-1.36v-20.87c0-.76-.6-1.38-1.36-1.38h-6.51c-.76,0-1.38.62-1.38,1.38v10.37h-23.07v-38h7.7c.78,0,1.39-.62,1.39-1.39v-9.1c0-.76-.61-1.38-1.39-1.38h-25.08c-.76,0-1.38.62-1.38,1.38v9.1c0,.78.62,1.39,1.38,1.39"/>
      </g>
      <g id="g5087">
        <path id="path5089" class="cls-3" d="M1180.83,675.54l7.02,12.65h.07l-.07.02v-.02h-14.16l-.05-.02,7.18-12.64ZM1147.46,715.66h25.08c.76,0,1.39-.59,1.39-1.36v-9.12c0-.76-.63-1.38-1.39-1.38h-7.75l-.05-.02,3.62-6.4h.02s-.02,0-.02,0h24.58l-.02.02,3.56,6.42-.03-.02h-7.58c-.76,0-1.39.62-1.39,1.38v9.12c0,.77.63,1.36,1.39,1.36h25.11c.74,0,1.36-.59,1.36-1.36v-9.12c0-.76-.62-1.38-1.36-1.38h-7v.02l-20.99-38.02h7.88c.77,0,1.38-.62,1.38-1.39v-9.1c0-.76-.61-1.38-1.38-1.38h-25.1c-.76,0-1.37.62-1.37,1.38v9.1c0,.78.61,1.39,1.37,1.39h6.99l-21.59,37.97.02.02h-6.73c-.76,0-1.38.62-1.38,1.38v9.12c0,.77.62,1.36,1.38,1.36"/>
      </g>
      <g id="g5091">
        <path id="path5093" class="cls-3" d="M1205.33,665.8h7.53l18.83,38h-7.7c-.76,0-1.37.62-1.37,1.38v9.12c0,.77.61,1.36,1.37,1.36h25.11c.75,0,1.38-.59,1.38-1.36v-9.12c0-.76-.63-1.38-1.38-1.38h-6.99l13.62-27.78,13.75,27.78h-7.46c-.76,0-1.38.62-1.38,1.38v9.12c0,.77.62,1.36,1.38,1.36h25.09c.77,0,1.38-.59,1.38-1.36v-9.12c0-.76-.61-1.38-1.38-1.38h-7.04l18.57-38h7.37c.76,0,1.36-.62,1.36-1.39v-9.1c0-.76-.6-1.38-1.36-1.38h-25.11c-.76,0-1.38.62-1.38,1.38v9.1c0,.78.62,1.39,1.38,1.39h7.52l-13.68,27.88-13.81-27.88h7.3c.76,0,1.36-.62,1.36-1.39v-9.1c0-.76-.6-1.38-1.36-1.38h-25.11c-.76,0-1.37.62-1.37,1.38v9.1c0,.78.61,1.39,1.37,1.39h7.29l-13.54,27.63-13.71-27.63h7.28c.77,0,1.38-.62,1.38-1.39v-9.1c0-.76-.61-1.38-1.38-1.38h-25.11c-.75,0-1.36.62-1.36,1.38v9.1c0,.78.61,1.39,1.36,1.39"/>
      </g>
      <g id="g5095">
        <path id="path5097" class="cls-3" d="M1429.8,715.66h25.09c.78,0,1.37-.59,1.37-1.36v-9.12c0-.76-.59-1.38-1.37-1.38h-8.25v-27.19h.02l29.1,27.19h-6.5c-.75,0-1.37.62-1.37,1.38v9.12c0,.77.62,1.36,1.37,1.36h25.1c.77,0,1.38-.59,1.38-1.36v-9.12c0-.76-.61-1.38-1.38-1.38h-7.99v-38h7.99c.77,0,1.38-.62,1.38-1.39v-9.1c0-.76-.61-1.38-1.38-1.38h-25.1c-.75,0-1.37.62-1.37,1.38v9.1c0,.78.62,1.39,1.37,1.39h7.9v26.7h-.03l-28.56-26.7h6.32c.78,0,1.37-.62,1.37-1.39v-9.1c0-.76-.59-1.38-1.37-1.38h-25.09c-.77,0-1.38.62-1.38,1.38v9.1c0,.78.61,1.39,1.38,1.39h7.64v38h-7.64c-.77,0-1.38.62-1.38,1.38v9.12c0,.77.61,1.36,1.38,1.36"/>
      </g>
    </g>
    <g>
      <path d="M670.41,700.99v-29.68h-4.98v-4.95h14.14c4.15,0,7.26.29,9.33.88s3.8,1.92,5.19,4c1.39,2.08,2.09,4.53,2.09,7.36,0,2.26-.46,4.28-1.38,6.07-.92,1.79-2.06,3.12-3.41,3.97-1.36.85-2.88,1.43-4.58,1.72s-4.26.44-7.7.44h-2.73v10.19h5.12v4.95h-16.08v-4.95h4.98ZM676.38,686.02h3.41c3.89,0,6.58-.55,8.08-1.67,1.5-1.11,2.25-3.07,2.25-5.88,0-1.78-.4-3.26-1.2-4.44-.8-1.18-1.78-1.92-2.96-2.25-1.18-.32-3.14-.48-5.89-.48h-3.7v14.71Z"/>
      <path d="M702.02,685.96c0-5.75,1.88-10.55,5.63-14.42,3.76-3.87,8.65-5.8,14.68-5.8s11.05,1.93,14.88,5.8c3.83,3.87,5.75,8.72,5.75,14.54s-1.95,10.84-5.85,14.7c-3.9,3.86-8.85,5.79-14.87,5.79-3.83,0-7.35-.92-10.57-2.75-3.22-1.83-5.63-4.38-7.24-7.65-1.61-3.27-2.42-6.67-2.42-10.2ZM708.54,685.99c0,4.34,1.27,7.99,3.81,10.92,2.54,2.94,5.88,4.41,10.02,4.41s7.46-1.5,10.1-4.51c2.64-3.01,3.95-6.6,3.95-10.77s-1.34-7.77-4.03-10.68c-2.68-2.91-6.06-4.37-10.11-4.37s-7.34,1.43-9.9,4.3c-2.56,2.86-3.84,6.43-3.84,10.7Z"/>
      <path d="M758.06,706.33l-10.08-35.02h-4.75v-4.95h15.14v4.95h-4.75l7.49,25.89,7.2-25.89h-4.71v-4.95h18.18v4.95h-4.65l7.23,25.89,7.35-25.89h-4.72v-4.95h14.57v4.95h-4.67l-9.88,35.02h-5.67l-8.91-31.3-8.85,31.3h-5.52Z"/>
      <path d="M809.67,700.99v-29.68h-5.12v-4.95h32.89v11.92h-4.89v-6.97h-16.9v11.78h14.71v4.95h-14.71v12.95h16.9v-7.2h4.89v12.15h-32.89v-4.95h5.12Z"/>
      <path d="M847,700.99v-29.68h-5.43v-4.95h16.08c3.36,0,6.02.26,8,.78,1.97.52,3.6,1.62,4.89,3.3,1.29,1.68,1.93,3.77,1.93,6.27,0,5.23-2.72,8.53-8.16,9.87l6.99,14.4h4.84v4.95h-8.57l-9.01-18.49h-5.58v13.54h5.06v4.95h-16.47v-4.95h5.43ZM852.98,682.49h4.67c2.26,0,3.92-.15,4.99-.44,1.07-.29,1.95-.89,2.63-1.79.68-.9,1.02-2.11,1.02-3.63,0-1.29-.35-2.38-1.04-3.27s-1.55-1.46-2.56-1.69c-1.02-.24-2.57-.36-4.65-.36h-5.06v11.18Z"/>
      <path d="M884.19,700.99v-29.68h-5.12v-4.95h32.89v11.92h-4.89v-6.97h-16.9v11.78h14.71v4.95h-14.71v12.95h16.9v-7.2h4.89v12.15h-32.89v-4.95h5.12Z"/>
      <path d="M921.47,700.99v-29.68h-5.38v-4.95h15.31c4.23,0,7.49.22,9.77.65s4.5,1.42,6.64,2.96,3.86,3.65,5.14,6.33c1.28,2.68,1.92,5.74,1.92,9.18,0,3.91-.62,7.3-1.85,10.19-1.23,2.88-2.85,5.04-4.85,6.46-2,1.42-4.38,2.41-7.14,2.97s-6.27.84-10.54.84h-14.4v-4.95h5.38ZM927.44,700.99h3.13c3.49,0,6.25-.22,8.29-.66,2.04-.44,3.76-1.18,5.16-2.23s2.54-2.64,3.41-4.77c.87-2.12,1.31-4.63,1.31-7.51,0-3.43-.72-6.34-2.15-8.74-1.43-2.39-3.26-3.95-5.49-4.68-2.23-.73-5.66-1.1-10.29-1.1h-3.39v29.68Z"/>
      <path d="M981.49,700.99v-29.68h-4.87v-4.95h13.17c3.62,0,6.34.22,8.15.65,1.81.44,3.41,1.54,4.79,3.31,1.38,1.77,2.08,3.86,2.08,6.25,0,1.84-.41,3.5-1.24,4.98-.83,1.48-2.03,2.6-3.63,3.36,2.2.76,3.89,2.02,5.08,3.77s1.78,3.76,1.78,6.02c0,1.95-.44,3.73-1.32,5.32-.88,1.59-2.05,2.83-3.51,3.7-1.46.87-3.06,1.46-4.79,1.76s-4.1.46-7.1.46h-13.46v-4.95h4.87ZM987.46,682.83h3.73c2.85,0,4.83-.5,5.96-1.49,1.13-1,1.69-2.46,1.69-4.4,0-3.76-2.55-5.63-7.65-5.63h-3.73v11.52ZM987.46,700.99h2.25c2.94,0,5.09-.15,6.46-.44s2.48-.99,3.34-2.08c.86-1.09,1.29-2.49,1.29-4.2,0-1.56-.41-2.86-1.24-3.91-.83-1.05-1.89-1.75-3.19-2.11s-3.13-.53-5.51-.53h-3.41v13.26Z"/>
      <path d="M1026.76,700.99v-13.06l-11.78-16.62h-4.84v-4.95h16.27v4.95h-4.99l8.74,12.23,7.98-12.23h-4.97v-4.95h15.76v4.95h-5.24l-10.98,16.62v13.06h5.41v4.95h-16.7v-4.95h5.32Z"/>
    </g>
  </g>
</svg>